<?xml version="1.0" ?>
<!DOCTYPE svg  PUBLIC '-//W3C//DTD SVG 1.1//EN'  'http://www.w3.org/Graphics/SVG/1.1/DTD/svg11.dtd'>
<!-- Uploaded to: SVG Repo, www.svgrepo.com, Generator: SVG Repo Mixer Tools -->
<svg fill="#000000" width="800px" height="800px" viewBox="0 0 48 48" enable-background="new 0 0 48 48" id="Layer_1" version="1.1" xml:space="preserve" xmlns="http://www.w3.org/2000/svg" xmlns:xlink="http://www.w3.org/1999/xlink">
<g>
<g>
<path d="M24.528,42.123c-3.473,0-6.877-0.103-10.05-0.198c-1.614-0.049-3.519-0.708-5.226-1.81    c-2.8-1.808-3.265-3.603-3.162-4.789c0.102-1.175,0.855-2.842,3.864-4.117c2.091-0.887,4.306-1.495,6.447-2.083    c0.95-0.261,1.9-0.521,2.84-0.806c0.527-0.162,1.087,0.137,1.247,0.666s-0.138,1.088-0.667,1.248    c-0.957,0.289-1.923,0.555-2.89,0.82c-2.078,0.57-4.227,1.16-6.196,1.996c-1.61,0.682-2.577,1.574-2.652,2.447    c-0.077,0.892,0.744,1.962,2.254,2.938c1.41,0.908,2.941,1.452,4.202,1.49c5.771,0.174,12.313,0.371,18.59-0.075    c1.607-0.114,3.657-1.192,5.771-3.038c0.768-0.671,1.123-1.408,1-2.076c-0.126-0.684-0.768-1.285-1.76-1.652    c-1.982-0.732-4.144-1.195-6.233-1.643c-0.949-0.203-1.899-0.406-2.839-0.635c-0.537-0.13-0.867-0.67-0.736-1.207    c0.129-0.537,0.669-0.87,1.207-0.736c0.923,0.224,1.855,0.423,2.787,0.622c2.158,0.462,4.391,0.94,6.508,1.723    c1.67,0.617,2.775,1.771,3.033,3.167c0.252,1.369-0.35,2.807-1.651,3.943c-1.726,1.508-4.331,3.342-6.944,3.527    C30.37,42.052,27.425,42.123,24.528,42.123z"/>
</g>
<g>
<path d="M26.456,36.601c-0.007,0-0.015,0-0.022-0.001l-0.769-0.017c-0.335-0.007-0.645-0.183-0.823-0.466    c-0.161-0.255-0.355-0.504-0.548-0.754c-0.065-0.085-0.132-0.172-0.199-0.26c-1.866,0.938-3.087,0.691-3.798,0.3    c-0.887-0.489-1.409-1.46-1.469-2.729c-0.031-0.654-0.067-1.311-0.103-1.967c-0.143-2.588-0.29-5.265-0.133-7.907    c0.247-4.151-0.898-6.149-4.086-7.126c-0.66-0.202-1.101-0.68-1.611-1.233c-0.224-0.244-0.479-0.521-0.791-0.812    c-0.199-0.185-0.314-0.442-0.319-0.714s0.101-0.533,0.292-0.725l2.032-2.031C14.428,9.841,14.92,9.776,15.313,10l5.666,3.242    l5.973,0.345c0.354-0.206,0.734-0.497,1.132-0.801c1.499-1.149,3.551-2.723,6.578-1.218c0.416,0.207,0.635,0.673,0.528,1.125    c-0.67,2.833-2.941,3.553-4.6,4.079c-0.772,0.245-1.509,0.478-1.962,0.858c0.001,1.263,0.006,2.508,0.01,3.739    c0.014,3.792,0.025,7.373-0.064,11.001c-0.023,0.951-0.405,1.799-0.775,2.618c-0.143,0.316-0.286,0.633-0.4,0.95    C27.255,36.337,26.878,36.601,26.456,36.601z M23.44,23.531c0.522,0,0.961,0.405,0.997,0.933c0.053,0.794,0.096,1.589,0.139,2.384    c0.105,1.952,0.214,3.971,0.481,5.913c0.054,0.388,0.442,0.893,0.819,1.38c0.023,0.03,0.046,0.061,0.069,0.09    c0.01-0.021,0.02-0.043,0.029-0.064c0.301-0.666,0.586-1.297,0.599-1.844c0.089-3.601,0.077-7.168,0.063-10.945    c-0.005-1.364-0.01-2.744-0.01-4.146c0-0.224,0.075-0.442,0.215-0.619c0.787-1,1.984-1.379,3.143-1.747    c1.434-0.454,2.43-0.821,2.963-1.823c-1.353-0.351-2.315,0.308-3.648,1.33c-0.537,0.411-1.092,0.836-1.688,1.127    c-0.153,0.075-0.318,0.11-0.495,0.1l-6.437-0.372c-0.154-0.009-0.356-0.057-0.491-0.134l-5.207-2.979l-0.787,0.787    c0.059,0.063,0.115,0.124,0.17,0.184c0.273,0.297,0.583,0.633,0.726,0.677c5.259,1.611,5.7,5.74,5.496,9.157    c-0.15,2.528-0.006,5.146,0.133,7.679c0.037,0.66,0.073,1.321,0.104,1.98c0.019,0.391,0.109,0.893,0.438,1.074    c0.294,0.161,0.931,0.152,1.874-0.307c-0.026-0.102-0.047-0.206-0.062-0.313c-0.278-2.024-0.389-4.085-0.497-6.078    c-0.042-0.786-0.085-1.572-0.137-2.357c-0.037-0.551,0.38-1.028,0.931-1.064C23.396,23.531,23.418,23.531,23.44,23.531z"/>
</g>
<g>
<path d="M24.814,39.766c-4.266,0-9.095-1.184-11.7-4.058c-0.322-0.356-0.346-0.892-0.056-1.274    c1.455-1.924,3.589-2.824,6.486-2.807c0.552,0.007,0.995,0.46,0.988,1.012c-0.007,0.553-0.441,1.014-1.012,0.988    c-1.892-0.012-3.257,0.4-4.278,1.355c2.43,2.031,6.968,3.124,11.464,2.695c3.078-0.293,5.533-1.278,6.749-2.678    c-1.232-1.402-3.032-1.391-5.075-1.375l-0.469,0.002c-0.532-0.034-1.001-0.445-1.003-0.997s0.445-1.001,0.997-1.003l0.46-0.002    c2.51-0.02,5.355-0.039,7.175,2.836c0.203,0.32,0.206,0.729,0.009,1.054c-1.363,2.245-4.518,3.76-8.652,4.154    C26.226,39.732,25.527,39.766,24.814,39.766z"/>
</g>
<g>
<path d="M22.322,14.643c-0.153,0-0.309-0.035-0.454-0.11c-2.411-1.232-2.841-3.802-2.021-5.703    c0.949-2.194,3.324-2.971,6.049-1.978c0.261,0.095,0.47,0.293,0.579,0.549l1.469,3.468c0.145,0.339,0.09,0.729-0.14,1.016    l-1.909,2.382c-0.346,0.431-0.976,0.5-1.406,0.156c-0.431-0.345-0.501-0.975-0.156-1.406l1.536-1.917l-1.058-2.497    c-0.875-0.241-2.494-0.453-3.129,1.02c-0.452,1.047-0.289,2.421,1.095,3.129c0.492,0.251,0.687,0.854,0.435,1.345    C23.036,14.444,22.686,14.643,22.322,14.643z"/>
</g>
</g>
</svg>